<svg width="26" height="26" viewBox="0 0 26 26" fill="none" xmlns="http://www.w3.org/2000/svg">
<path d="M7.66667 18.6C7.66667 19.873 7.24524 21.0939 6.49509 21.9941C5.74495 22.8943 4.72753 23.4 3.66667 23.4M18.3333 18.6C18.3333 19.873 18.7548 21.0939 19.5049 21.9941C20.2551 22.8943 21.2725 23.4 22.3333 23.4M13 18.6V25M1 4.2C1 3.35131 1.28095 2.53737 1.78105 1.93726C2.28115 1.33714 2.95942 1 3.66667 1H22.3333C23.0406 1 23.7189 1.33714 24.219 1.93726C24.719 2.53737 25 3.35131 25 4.2V10.6C25 11.4487 24.719 12.2626 24.219 12.8627C23.7189 13.4629 23.0406 13.8 22.3333 13.8H3.66667C2.95942 13.8 2.28115 13.4629 1.78105 12.8627C1.28095 12.2626 1 11.4487 1 10.6V4.2Z" stroke="#565656" stroke-width="1.5" stroke-linecap="round" stroke-linejoin="round"/>
<path d="M6.32812 13.7975V8.99746C6.32812 8.57311 6.4686 8.16615 6.71865 7.86609C6.9687 7.56603 7.30784 7.39746 7.66146 7.39746H18.3281C18.6817 7.39746 19.0209 7.56603 19.2709 7.86609C19.521 8.16615 19.6615 8.57311 19.6615 8.99746V13.7975" stroke="#565656" stroke-width="1.5" stroke-linecap="round" stroke-linejoin="round"/>
</svg>
