<svg width="33" height="33" viewBox="0 0 33 33" fill="none" xmlns="http://www.w3.org/2000/svg">
<circle cx="16.5" cy="16.5" r="16" stroke="white"/>
<path d="M7.66699 21V23.5C7.66699 24 8.00033 24.3333 8.50033 24.3333H11.8337V21.8333H14.3337V19.3333H16.0003L17.167 18.1666C18.3252 18.5701 19.586 18.5685 20.7432 18.1623C21.9004 17.756 22.8855 16.969 23.5373 15.9301C24.1891 14.8911 24.469 13.6618 24.3313 12.4431C24.1935 11.2244 23.6463 10.0885 22.779 9.22128C21.9118 8.35404 20.7759 7.80679 19.5572 7.66905C18.3385 7.5313 17.1091 7.81122 16.0702 8.46301C15.0313 9.11479 14.2443 10.0999 13.838 11.2571C13.4317 12.4143 13.4302 13.6751 13.8337 14.8333L7.66699 21Z" stroke="#8D6E3D" stroke-linecap="round" stroke-linejoin="round"/>
<path d="M19.7503 12.6667C19.9804 12.6667 20.167 12.4801 20.167 12.25C20.167 12.0199 19.9804 11.8333 19.7503 11.8333C19.5202 11.8333 19.3337 12.0199 19.3337 12.25C19.3337 12.4801 19.5202 12.6667 19.7503 12.6667Z" stroke="#8D6E3D" stroke-linecap="round" stroke-linejoin="round"/>
</svg>
