<svg width="48" height="47" viewBox="0 0 48 47" fill="none" xmlns="http://www.w3.org/2000/svg">
<g opacity="0.8">
<path d="M13.5105 33.939H34.4895" stroke="#565656" stroke-width="1.8" stroke-miterlimit="10" stroke-linecap="round" stroke-linejoin="round"/>
<path d="M27.1572 33.9289L14.5698 33.9501L14.5593 18.1047C14.5593 17.3941 14.916 16.7365 15.4929 16.3441L19.6887 13.5123C20.3915 13.035 21.3146 13.035 22.0174 13.5123L26.2132 16.3441C26.8006 16.7365 27.1467 17.3941 27.1467 18.1047L27.1572 33.9289Z" stroke="#565656" stroke-width="1.8" stroke-miterlimit="10" stroke-linecap="round" stroke-linejoin="round"/>
<path d="M32.3706 33.9498V29.6968" stroke="#565656" stroke-width="1.8" stroke-miterlimit="10" stroke-linecap="round" stroke-linejoin="round"/>
<path d="M32.3918 23.333C31.238 23.333 30.2939 24.2876 30.2939 25.4542V27.5754C30.2939 28.7421 31.238 29.6966 32.3918 29.6966C33.5457 29.6966 34.4897 28.7421 34.4897 27.5754V25.4542C34.4897 24.2876 33.5457 23.333 32.3918 23.333Z" stroke="#565656" stroke-width="1.8" stroke-miterlimit="10" stroke-linecap="round" stroke-linejoin="round"/>
<path d="M14.5593 25.4541H27.1467" stroke="#565656" stroke-width="1.65714" stroke-miterlimit="10" stroke-linecap="round" stroke-linejoin="round"/>
<path d="M20.8533 33.9392V29.9619" stroke="#565656" stroke-width="1.8" stroke-miterlimit="10" stroke-linecap="round" stroke-linejoin="round"/>
<path d="M20.8532 21.7424C21.7222 21.7424 22.4266 21.0301 22.4266 20.1515C22.4266 19.2728 21.7222 18.5605 20.8532 18.5605C19.9842 18.5605 19.2798 19.2728 19.2798 20.1515C19.2798 21.0301 19.9842 21.7424 20.8532 21.7424Z" stroke="#565656" stroke-width="1.8" stroke-miterlimit="10" stroke-linecap="round" stroke-linejoin="round"/>
</g>
</svg>
