<svg width="48" height="47" viewBox="0 0 48 47" fill="none" xmlns="http://www.w3.org/2000/svg">
<path d="M12.4614 33.9385H35.5384" stroke="#565656" stroke-width="1.65714" stroke-miterlimit="10" stroke-linecap="round" stroke-linejoin="round"/>
<path d="M32.1609 33.9491V29.2188" stroke="#565656" stroke-width="1.65714" stroke-miterlimit="10" stroke-linecap="round" stroke-linejoin="round"/>
<path d="M32.1817 22.1553C30.902 22.1553 29.874 23.1947 29.874 24.4886V26.8962C29.874 28.1901 30.902 29.2295 32.1817 29.2295C33.4614 29.2295 34.4894 28.1901 34.4894 26.8962V24.4886C34.4894 23.1947 33.4614 22.1553 32.1817 22.1553Z" stroke="#565656" stroke-width="1.65714" stroke-miterlimit="10" stroke-linecap="round" stroke-linejoin="round"/>
<path d="M13.6155 33.9383V17.0004C13.6155 14.8686 14.6645 13.7974 16.7519 13.7974H23.2868C25.3743 13.7974 26.4127 14.8686 26.4127 17.0004V33.9383" stroke="#565656" stroke-width="1.65714" stroke-miterlimit="10" stroke-linecap="round" stroke-linejoin="round"/>
<path d="M17.4963 19.355H22.6887" stroke="#565656" stroke-width="1.65714" stroke-miterlimit="10" stroke-linecap="round" stroke-linejoin="round"/>
<path d="M17.4963 23.3325H22.6887" stroke="#565656" stroke-width="1.65714" stroke-miterlimit="10" stroke-linecap="round" stroke-linejoin="round"/>
<path d="M20.0664 33.9387V29.9614" stroke="#565656" stroke-width="1.65714" stroke-miterlimit="10" stroke-linecap="round" stroke-linejoin="round"/>
</svg>
