<svg width="48" height="47" viewBox="0 0 48 47" fill="none" xmlns="http://www.w3.org/2000/svg">
<g opacity="0.8">
<path d="M24.5245 33.9395H15.6923C14.4755 33.9395 13.479 32.9532 13.479 31.7441V16.0047C13.479 13.2259 15.5245 11.9638 18.0315 13.2047L22.6888 15.5168C23.6958 16.0153 24.5245 17.3411 24.5245 18.4653V33.9395Z" stroke="#565656" stroke-width="1.65714" stroke-linecap="round" stroke-linejoin="round"/>
<path d="M34.458 26.5784V30.5875C34.458 32.8784 33.409 33.939 31.1433 33.939H24.5244V21.6572L25.0174 21.7633L29.7377 22.8345L31.8671 23.3118C33.2517 23.6193 34.3846 24.3406 34.4475 26.3769C34.458 26.4406 34.458 26.5042 34.458 26.5784Z" stroke="#565656" stroke-width="1.65714" stroke-linecap="round" stroke-linejoin="round"/>
<path d="M17.1816 20.1514H20.8215" stroke="#565656" stroke-width="1.65714" stroke-linecap="round" stroke-linejoin="round"/>
<path d="M17.1816 24.394H20.8215" stroke="#565656" stroke-width="1.65714" stroke-linecap="round" stroke-linejoin="round"/>
<path d="M29.7379 22.8344V26.2495C29.7379 27.5647 28.6784 28.6359 27.3777 28.6359C26.077 28.6359 25.0176 27.5647 25.0176 26.2495V21.7632L29.7379 22.8344Z" stroke="#565656" stroke-width="1.65714" stroke-linecap="round" stroke-linejoin="round"/>
<path d="M34.4476 26.3774C34.3846 27.6289 33.3567 28.6365 32.0979 28.6365C30.7972 28.6365 29.7378 27.5653 29.7378 26.2501V22.835L31.8672 23.3122C33.2518 23.6198 34.3846 24.341 34.4476 26.3774Z" stroke="#565656" stroke-width="1.65714" stroke-linecap="round" stroke-linejoin="round"/>
</g>
</svg>
