<svg width="28" height="28" viewBox="0 0 28 28" fill="none" xmlns="http://www.w3.org/2000/svg">
<path d="M14.6429 12.7148C14.2878 12.7148 14 13.0027 14 13.3577V22.3577C14 22.7127 14.2878 23.0006 14.6429 23.0006H22.3571C22.7121 23.0006 23 22.7127 23 22.3577V13.3577C23 13.0027 22.7121 12.7148 22.3571 12.7148H14.6429Z" fill="#3C757D"/>
<path d="M10.8128 5.17726C10.5646 4.94091 10.1746 4.94091 9.9263 5.17726L5.19959 9.67726C5.07214 9.79859 5 9.96688 5 10.1429V22.3571C5 22.7121 5.28782 23 5.64286 23H15.0963C15.4513 23 15.7391 22.7121 15.7391 22.3571V10.1429C15.7391 9.96688 15.667 9.79859 15.5396 9.67726L10.8128 5.17726Z" fill="white"/>
<path fill-rule="evenodd" clip-rule="evenodd" d="M11.6554 22.9997V20.4283C11.6554 19.7182 11.0798 19.1426 10.3697 19.1426C9.65961 19.1426 9.08398 19.7182 9.08398 20.4283V22.9997H11.6554Z" fill="#3C757D"/>
<path fill-rule="evenodd" clip-rule="evenodd" d="M8.59654 10.8242C8.15274 10.8242 7.79297 11.184 7.79297 11.6278C7.79297 12.0716 8.15274 12.4314 8.59654 12.4314H12.1416C12.5854 12.4314 12.9451 12.0716 12.9451 11.6278C12.9451 11.184 12.5854 10.8242 12.1416 10.8242H8.59654ZM8.59654 14.1765C8.15274 14.1765 7.79297 14.5363 7.79297 14.9801C7.79297 15.4239 8.15274 15.7837 8.59654 15.7837H12.1416C12.5854 15.7837 12.9451 15.4239 12.9451 14.9801C12.9451 14.5363 12.5854 14.1765 12.1416 14.1765H8.59654Z" fill="#3C757D"/>
</svg>
