<svg width="43" height="43" viewBox="0 0 43 43" fill="none" xmlns="http://www.w3.org/2000/svg">
<path d="M4.47266 19.6522C4.47266 16.1562 6.22064 14.4082 9.71661 14.4082H18.4565V33.636C18.4565 37.132 20.2045 38.88 23.7005 38.88H9.71661C6.22064 38.88 4.47266 37.132 4.47266 33.636V26.6441" stroke="#8D6E3D" stroke-width="1.5" stroke-miterlimit="10" stroke-linecap="round" stroke-linejoin="round"/>
<path d="M18.649 7.41602C18.5091 7.94041 18.4567 8.51724 18.4567 9.164V14.4079H9.7168V10.912C9.7168 8.9892 11.29 7.41602 13.2128 7.41602H18.649Z" stroke="#8D6E3D" stroke-width="1.5" stroke-miterlimit="10" stroke-linecap="round" stroke-linejoin="round"/>
<path d="M25.4492 14.4082V23.1481" stroke="#8D6E3D" stroke-width="1.5" stroke-miterlimit="10" stroke-linecap="round" stroke-linejoin="round"/>
<path d="M32.4395 14.4082V23.1481" stroke="#8D6E3D" stroke-width="1.5" stroke-miterlimit="10" stroke-linecap="round" stroke-linejoin="round"/>
<path d="M30.6932 30.1387H27.1972C26.2358 30.1387 25.4492 30.9253 25.4492 31.8867V38.8786H32.4412V31.8867C32.4412 30.9253 31.6546 30.1387 30.6932 30.1387Z" stroke="#8D6E3D" stroke-width="1.5" stroke-miterlimit="10" stroke-linecap="round" stroke-linejoin="round"/>
<path d="M11.4648 23.1484V30.1404" stroke="#8D6E3D" stroke-width="1.5" stroke-miterlimit="10" stroke-linecap="round" stroke-linejoin="round"/>
<path d="M18.457 33.6356V9.16387C18.457 5.6679 20.205 3.91992 23.701 3.91992H34.1889C37.6848 3.91992 39.4328 5.6679 39.4328 9.16387V33.6356C39.4328 37.1316 37.6848 38.8796 34.1889 38.8796H23.701C20.205 38.8796 18.457 37.1316 18.457 33.6356Z" stroke="#8D6E3D" stroke-width="1.5" stroke-miterlimit="10" stroke-linecap="round" stroke-linejoin="round"/>
</svg>
