<svg width="47" height="47" viewBox="0 0 47 47" fill="none" xmlns="http://www.w3.org/2000/svg">
<path d="M17.9871 29.6967H15.3346C13.8471 29.6967 13.0981 28.9331 13.0981 27.4164V15.0074C13.0981 13.4907 13.8471 12.7271 15.3346 12.7271H19.8075C21.295 12.7271 22.0439 13.4907 22.0439 15.0074V16.9695" stroke="#565656" stroke-width="1.65714" stroke-miterlimit="10" stroke-linecap="round" stroke-linejoin="round"/>
<path d="M29.0861 19.5364V31.3728C29.0861 33.0803 28.2539 33.9394 26.5792 33.9394H20.5044C18.8296 33.9394 17.9871 33.0803 17.9871 31.3728V19.5364C17.9871 17.8288 18.8296 16.9697 20.5044 16.9697H26.5792C28.2539 16.9697 29.0861 17.8288 29.0861 19.5364Z" stroke="#565656" stroke-width="1.65714" stroke-miterlimit="10" stroke-linecap="round" stroke-linejoin="round"/>
<path d="M24.9565 16.9695V15.0074C24.9565 13.4907 25.7055 12.7271 27.193 12.7271H31.6658C33.1533 12.7271 33.9023 13.4907 33.9023 15.0074V27.4164C33.9023 28.9331 33.1533 29.6967 31.6658 29.6967H29.0861" stroke="#565656" stroke-width="1.65714" stroke-miterlimit="10" stroke-linecap="round" stroke-linejoin="round"/>
<path d="M21.4199 22.2725H25.5808" stroke="#565656" stroke-width="1.65714" stroke-miterlimit="10" stroke-linecap="round" stroke-linejoin="round"/>
<path d="M21.4199 25.4541H25.5808" stroke="#565656" stroke-width="1.65714" stroke-miterlimit="10" stroke-linecap="round" stroke-linejoin="round"/>
<path d="M23.5002 33.9391V30.7573" stroke="#565656" stroke-width="1.65714" stroke-miterlimit="10" stroke-linecap="round" stroke-linejoin="round"/>
</svg>
