<svg width="42" height="42" viewBox="0 0 42 42" fill="none" xmlns="http://www.w3.org/2000/svg">
<path d="M14 19.9496C14 21.2971 15.05 22.3996 16.3275 22.3996H18.9525C20.0725 22.3996 20.9825 21.4371 20.9825 20.2646C20.9825 18.9871 20.4225 18.5321 19.6 18.2346L15.4 16.7646C14.56 16.4671 14 16.0121 14 14.7346C14 13.5621 14.91 12.5996 16.03 12.5996H18.655C19.95 12.6171 21 13.7021 21 15.0496" stroke="#8D6E3D" stroke-width="1.5" stroke-linecap="round" stroke-linejoin="round"/>
<path d="M17.5 22.4883V23.7833" stroke="#8D6E3D" stroke-width="1.5" stroke-linecap="round" stroke-linejoin="round"/>
<path d="M17.5 11.2168V12.5818" stroke="#8D6E3D" stroke-width="1.5" stroke-linecap="round" stroke-linejoin="round"/>
<path d="M10.6225 5.285C12.6525 4.1475 14.98 3.5 17.4825 3.5C25.2 3.5 31.465 9.765 31.465 17.4825C31.465 25.2 25.2 31.465 17.4825 31.465C9.765 31.465 3.5 25.2 3.5 17.4825C3.5 15.33 3.99 13.2825 4.865 11.4625" stroke="#8D6E3D" stroke-width="1.5" stroke-linecap="round" stroke-linejoin="round"/>
<path d="M22.7148 34.79C24.2898 37.0125 26.8623 38.465 29.8023 38.465C34.5798 38.465 38.4648 34.58 38.4648 29.8025C38.4648 26.8975 37.0298 24.325 34.8423 22.75" stroke="#8D6E3D" stroke-width="1.5" stroke-linecap="round" stroke-linejoin="round"/>
</svg>
