<svg width="34" height="33" viewBox="0 0 34 33" fill="none" xmlns="http://www.w3.org/2000/svg">
<rect y="0.5" width="34" height="32" rx="8" fill="#3C757D"/>
<path d="M23.75 24H10.25C9.9425 24 9.6875 23.745 9.6875 23.4375C9.6875 23.13 9.9425 22.875 10.25 22.875H23.75C24.0575 22.875 24.3125 23.13 24.3125 23.4375C24.3125 23.745 24.0575 24 23.75 24Z" fill="white"/>
<path d="M22.2649 10.1093C20.8099 8.65426 19.3849 8.61676 17.8924 10.1093L16.9849 11.0168C16.9099 11.0918 16.8799 11.2118 16.9099 11.3168C17.4799 13.3043 19.0699 14.8943 21.0574 15.4643C21.0874 15.4718 21.1174 15.4793 21.1474 15.4793C21.2299 15.4793 21.3049 15.4493 21.3649 15.3893L22.2649 14.4818C23.0074 13.7468 23.3674 13.0343 23.3674 12.3143C23.3749 11.5718 23.0149 10.8518 22.2649 10.1093Z" fill="white"/>
<path d="M19.7077 16.1471C19.4902 16.0421 19.2802 15.9371 19.0777 15.8171C18.9127 15.7196 18.7552 15.6146 18.5977 15.5021C18.4702 15.4196 18.3202 15.2996 18.1777 15.1796C18.1627 15.1721 18.1102 15.1271 18.0502 15.0671C17.8027 14.8571 17.5252 14.5871 17.2777 14.2871C17.2552 14.2721 17.2177 14.2196 17.1652 14.1521C17.0902 14.0621 16.9627 13.9121 16.8502 13.7396C16.7602 13.6271 16.6552 13.4621 16.5577 13.2971C16.4377 13.0946 16.3327 12.8921 16.2277 12.6821C16.0901 12.3871 15.7029 12.2995 15.4727 12.5297L11.2552 16.7471C11.1577 16.8446 11.0677 17.0321 11.0452 17.1596L10.6402 20.0321C10.5652 20.5421 10.7077 21.0221 11.0227 21.3446C11.2927 21.6071 11.6677 21.7496 12.0727 21.7496C12.1627 21.7496 12.2527 21.7421 12.3427 21.7271L15.2227 21.3221C15.3577 21.2996 15.5452 21.2096 15.6352 21.1121L19.8596 16.8877C20.0852 16.6621 20.0005 16.274 19.7077 16.1471Z" fill="white"/>
</svg>
