<svg width="28" height="28" viewBox="0 0 28 28" fill="none" xmlns="http://www.w3.org/2000/svg">
<path fill-rule="evenodd" clip-rule="evenodd" d="M11.7508 6.02483C11.7508 5.49227 11.3191 5.06055 10.7866 5.06055C10.254 5.06055 9.82227 5.49227 9.82227 6.02483V9.52037H11.7508V6.02483ZM18.1794 9.52037H16.2508V6.02483C16.2508 5.49227 16.6826 5.06055 17.2151 5.06055C17.7477 5.06055 18.1794 5.49227 18.1794 6.02483V9.52037ZM13.0366 18.5203H14.9651V21.9758C14.9651 22.5083 14.5334 22.9401 14.0008 22.9401C13.4683 22.9401 13.0366 22.5083 13.0366 21.9758V18.5203Z" fill="#3C757D"/>
<path d="M16.5723 18.5195H11.4294C9.29917 18.5195 7.57227 16.7926 7.57227 14.6624V10.8052C7.57227 10.0952 8.14791 9.51953 8.85798 9.51953H19.1437C19.8538 9.51953 20.4294 10.0952 20.4294 10.8052V14.6624C20.4294 16.7926 18.7026 18.5195 16.5723 18.5195Z" fill="white"/>
</svg>
