<svg width="21" height="24" viewBox="0 0 21 24" fill="none" xmlns="http://www.w3.org/2000/svg">
<g clip-path="url(#clip0_10903_228935)">
<path d="M14.96 2.57227H5.98759C5.1617 2.57227 4.49219 3.33978 4.49219 4.28655V12.858C4.49219 13.8048 5.1617 14.5723 5.98759 14.5723H14.96C15.7859 14.5723 16.4554 13.8048 16.4554 12.858V4.28655C16.4554 3.33978 15.7859 2.57227 14.96 2.57227Z" stroke="#787878" stroke-width="1.5" stroke-linecap="round" stroke-linejoin="round"/>
<path d="M4.4885 7.71484H2.2454C1.8488 7.71484 1.46843 7.89546 1.18799 8.21695C0.907551 8.53844 0.75 8.97447 0.75 9.42913V17.1434C0.75 17.5981 0.907551 18.0341 1.18799 18.3556C1.46843 18.6771 1.8488 18.8577 2.2454 18.8577H18.6948C19.0914 18.8577 19.4718 18.6771 19.7522 18.3556C20.0327 18.0341 20.1902 17.5981 20.1902 17.1434V9.42913C20.1902 8.97447 20.0327 8.53844 19.7522 8.21695C19.4718 7.89546 19.0914 7.71484 18.6948 7.71484H16.4517M5.9839 18.8577L5.2362 23.1434M14.9563 18.8577L15.704 23.1434" stroke="#787878" stroke-width="1.5" stroke-linecap="round" stroke-linejoin="round"/>
</g>
<defs>
<clipPath id="clip0_10903_228935">
<rect width="20.9356" height="24" fill="white"/>
</clipPath>
</defs>
</svg>
