<svg width="33" height="33" viewBox="0 0 33 33" fill="none" xmlns="http://www.w3.org/2000/svg">
<circle cx="16.5" cy="16.5" r="16" stroke="white"/>
<path d="M11.9993 24.3337V9.33366C11.9993 8.89163 12.1749 8.46771 12.4875 8.15515C12.8001 7.84259 13.224 7.66699 13.666 7.66699H20.3327C20.7747 7.66699 21.1986 7.84259 21.5112 8.15515C21.8238 8.46771 21.9993 8.89163 21.9993 9.33366V24.3337M11.9993 24.3337H21.9993M11.9993 24.3337H10.3327C9.89065 24.3337 9.46673 24.1581 9.15417 23.8455C8.84161 23.5329 8.66602 23.109 8.66602 22.667V17.667C8.66602 17.225 8.84161 16.801 9.15417 16.4885C9.46673 16.1759 9.89065 16.0003 10.3327 16.0003H11.9993M21.9993 24.3337H23.666C24.108 24.3337 24.532 24.1581 24.8445 23.8455C25.1571 23.5329 25.3327 23.109 25.3327 22.667V15.167C25.3327 14.725 25.1571 14.301 24.8445 13.9885C24.532 13.6759 24.108 13.5003 23.666 13.5003H21.9993M15.3327 11.0003H18.666M15.3327 14.3337H18.666M15.3327 17.667H18.666M15.3327 21.0003H18.666" stroke="#8D6E3D" stroke-linecap="round" stroke-linejoin="round"/>
</svg>
