<svg width="40" height="40" viewBox="0 0 40 40" fill="none" xmlns="http://www.w3.org/2000/svg">
<rect x="0.191406" y="6.66797" width="36.9748" height="33.1854" rx="16.5927" fill="#1B1F27"/>
<rect x="24.6914" y="0.667969" width="15" height="16" rx="7.5" fill="#E02D3C"/>
<path d="M30.456 11.792H35.22V12.668H29.208L29.22 11.888L32.508 8.47997C33.24 7.73597 33.708 6.95597 33.708 6.40397C33.708 5.58797 33.048 5.08397 31.944 5.08397C31.14 5.08397 30.24 5.47997 29.556 6.11597L29.136 5.38397C29.976 4.66397 31.02 4.21997 32.052 4.21997C33.66 4.21997 34.704 5.02397 34.704 6.27197C34.704 7.07597 34.08 8.04797 33.156 9.00797L30.456 11.792Z" fill="white"/>
<path d="M16.3477 25.3605L17.6476 26.5272L21.1139 23.416" stroke="white" stroke-width="1.5" stroke-linecap="round" stroke-linejoin="round"/>
<path d="M16.9461 18.5936H20.4125C22.1457 18.5936 22.1457 17.8158 22.1457 17.038C22.1457 15.4824 21.2791 15.4824 20.4125 15.4824H16.9461C16.0795 15.4824 15.2129 15.4824 15.2129 17.038C15.2129 18.5936 16.0795 18.5936 16.9461 18.5936Z" stroke="white" stroke-width="1.5" stroke-miterlimit="10" stroke-linecap="round" stroke-linejoin="round"/>
<path d="M22.1447 17.0547C25.0304 17.1947 26.4776 18.1514 26.4776 21.7058V26.3725C26.4776 29.4837 25.611 31.0392 21.2781 31.0392H16.0785C11.7455 31.0392 10.8789 29.4837 10.8789 26.3725V21.7058C10.8789 18.1591 12.3261 17.1947 15.2119 17.0547" stroke="white" stroke-width="1.5" stroke-miterlimit="10" stroke-linecap="round" stroke-linejoin="round"/>
</svg>
