<svg width="33" height="33" viewBox="0 0 33 33" fill="none" xmlns="http://www.w3.org/2000/svg">
<circle cx="16.5" cy="16.5" r="16" stroke="white"/>
<path d="M10.4753 18.7502L14.2503 22.5252C15.8003 24.0752 18.317 24.0752 19.8753 22.5252L23.5337 18.8668C25.0837 17.3168 25.0837 14.8002 23.5337 13.2418L19.7503 9.47516C18.9587 8.6835 17.867 8.2585 16.7503 8.31683L12.5837 8.51683C10.917 8.59183 9.59198 9.91683 9.50865 11.5752L9.30865 15.7418C9.25865 16.8668 9.68365 17.9585 10.4753 18.7502Z" stroke="#8D6E3D" stroke-width="1.25" stroke-linecap="round" stroke-linejoin="round"/>
<path d="M14.9173 15.9997C16.0679 15.9997 17.0007 15.0669 17.0007 13.9163C17.0007 12.7657 16.0679 11.833 14.9173 11.833C13.7667 11.833 12.834 12.7657 12.834 13.9163C12.834 15.0669 13.7667 15.9997 14.9173 15.9997Z" stroke="#8D6E3D" stroke-width="1.25" stroke-linecap="round"/>
</svg>
