<svg width="24" height="24" viewBox="0 0 24 24" fill="none" xmlns="http://www.w3.org/2000/svg">
<rect x="0.5" y="0.5" width="23" height="23" rx="7.5" fill="white" stroke="#CECECE"/>
<path d="M7.80156 10.7998C7.14156 10.7998 6.60156 11.3398 6.60156 11.9998C6.60156 12.6598 7.14156 13.1998 7.80156 13.1998C8.46156 13.1998 9.00156 12.6598 9.00156 11.9998C9.00156 11.3398 8.46156 10.7998 7.80156 10.7998Z" fill="#BDBDBD"/>
<path d="M16.2 10.7998C15.54 10.7998 15 11.3398 15 11.9998C15 12.6598 15.54 13.1998 16.2 13.1998C16.86 13.1998 17.4 12.6598 17.4 11.9998C17.4 11.3398 16.86 10.7998 16.2 10.7998Z" fill="#BDBDBD"/>
<path d="M12.0008 10.7998C11.3408 10.7998 10.8008 11.3398 10.8008 11.9998C10.8008 12.6598 11.3408 13.1998 12.0008 13.1998C12.6608 13.1998 13.2008 12.6598 13.2008 11.9998C13.2008 11.3398 12.6608 10.7998 12.0008 10.7998Z" fill="#BDBDBD"/>
</svg>
