<svg width="27" height="27" viewBox="0 0 27 27" fill="none" xmlns="http://www.w3.org/2000/svg">
<circle cx="13.5" cy="13.5" r="13.25" stroke="#3C757D" stroke-width="0.5"/>
<path opacity="0.2" d="M20.5465 10.7349V16.1035C20.5465 16.9825 20.0756 17.7988 19.3142 18.2462L14.652 20.9384C13.8907 21.3779 12.9488 21.3779 12.1796 20.9384L7.51742 18.2462C6.75609 17.8067 6.28516 16.9904 6.28516 16.1035V10.7349C6.28516 9.8558 6.75609 9.03949 7.51742 8.59211L12.1796 5.89996C12.941 5.46043 13.8828 5.46043 14.652 5.89996L19.3142 8.59211C20.0756 9.03949 20.5465 9.84796 20.5465 10.7349Z" fill="#3C757D"/>
<path d="M13.4206 13.4193C14.4306 13.4193 15.2494 12.6005 15.2494 11.5905C15.2494 10.5805 14.4306 9.76172 13.4206 9.76172C12.4106 9.76172 11.5918 10.5805 11.5918 11.5905C11.5918 12.6005 12.4106 13.4193 13.4206 13.4193Z" fill="#3C757D"/>
<path d="M15.5249 17.0763C16.1606 17.0763 16.5295 16.3699 16.1763 15.844C15.6426 15.0513 14.6066 14.5176 13.4214 14.5176C12.2362 14.5176 11.2002 15.0513 10.6664 15.844C10.3132 16.3699 10.6821 17.0763 11.3179 17.0763H15.5249Z" fill="#3C757D"/>
</svg>
