<svg width="43" height="43" viewBox="0 0 43 43" fill="none" xmlns="http://www.w3.org/2000/svg">
<path d="M4.18555 38.8789H39.1452" stroke="#8D6E3D" stroke-width="1.5" stroke-miterlimit="10" stroke-linecap="round" stroke-linejoin="round"/>
<path d="M5.93359 17.8506C5.93359 16.7844 6.44051 15.7706 7.27954 15.1064L19.5154 5.57986C20.774 4.60099 22.5394 4.60099 23.8155 5.57986L36.0513 15.0889C36.9079 15.7531 37.3973 16.7669 37.3973 17.8506V38.8789" stroke="#8D6E3D" stroke-width="1.5" stroke-miterlimit="10" stroke-linecap="round" stroke-linejoin="round"/>
<path d="M5.8457 38.8786L5.89814 24.9473" stroke="#8D6E3D" stroke-width="1.5" stroke-miterlimit="10" stroke-linecap="round" stroke-linejoin="round"/>
<path d="M23.4129 30.1387H19.9169C18.4661 30.1387 17.2949 31.3098 17.2949 32.7606V38.8786H26.0348V32.7606C26.0348 31.3098 24.8637 30.1387 23.4129 30.1387Z" stroke="#8D6E3D" stroke-width="1.5" stroke-miterlimit="10" stroke-linejoin="round"/>
<path d="M17.2947 24.4578H13.7988C12.8374 24.4578 12.0508 23.6712 12.0508 22.7098V20.0878C12.0508 19.1264 12.8374 18.3398 13.7988 18.3398H17.2947C18.2561 18.3398 19.0427 19.1264 19.0427 20.0878V22.7098C19.0427 23.6712 18.2561 24.4578 17.2947 24.4578Z" stroke="#8D6E3D" stroke-width="1.5" stroke-miterlimit="10" stroke-linejoin="round"/>
<path d="M29.5311 24.4578H26.0351C25.0737 24.4578 24.2871 23.6712 24.2871 22.7098V20.0878C24.2871 19.1264 25.0737 18.3398 26.0351 18.3398H29.5311C30.4924 18.3398 31.279 19.1264 31.279 20.0878V22.7098C31.279 23.6712 30.4924 24.4578 29.5311 24.4578Z" stroke="#8D6E3D" stroke-width="1.5" stroke-miterlimit="10" stroke-linejoin="round"/>
<path d="M33.9018 12.66L33.8493 7.41602H26.1582" stroke="#8D6E3D" stroke-width="1.5" stroke-miterlimit="10" stroke-linecap="round" stroke-linejoin="round"/>
</svg>
