<svg width="28" height="28" viewBox="0 0 28 28" fill="none" xmlns="http://www.w3.org/2000/svg">
<path d="M14 23C18.9706 23 23 18.9706 23 14C23 9.02944 18.9706 5 14 5C9.02944 5 5 9.02944 5 14C5 18.9706 9.02944 23 14 23Z" fill="white"/>
<path fill-rule="evenodd" clip-rule="evenodd" d="M15.2849 14.9414C16.0535 14.4968 16.5706 13.6658 16.5706 12.714C16.5706 11.2938 15.4193 10.1426 13.9992 10.1426C12.579 10.1426 11.4277 11.2938 11.4277 12.714C11.4277 13.6658 11.9448 14.4968 12.7134 14.9414V17.214C12.7134 17.9241 13.2891 18.4997 13.9992 18.4997C14.7092 18.4997 15.2849 17.9241 15.2849 17.214V14.9414Z" fill="#3C757D"/>
</svg>
