<svg width="28" height="28" viewBox="0 0 28 28" fill="none" xmlns="http://www.w3.org/2000/svg">
<path fill-rule="evenodd" clip-rule="evenodd" d="M8.40293 5.00195C7.32675 5.00195 6.45433 5.87438 6.45433 6.95056L6.45431 21.069H5.97405C5.44149 21.069 5.00977 21.5007 5.00977 22.0333C5.00977 22.5658 5.44149 22.9976 5.97405 22.9976H9.67048L9.67927 22.9974H12.9399C12.9108 22.8606 12.8955 22.7187 12.8955 22.5731C12.8955 20.5019 13.972 18.6819 15.5961 17.6423C14.9708 16.9154 14.5929 15.9696 14.5929 14.9355C14.5929 13.4648 15.3574 12.1726 16.5107 11.4347L16.5107 6.95056C16.5107 5.87439 15.6383 5.00195 14.5621 5.00195H8.40293Z" fill="white"/>
<path fill-rule="evenodd" clip-rule="evenodd" d="M6.45508 12.2253C6.458 12.2253 6.46093 12.2253 6.46386 12.2253H12.0448C12.4886 12.2253 12.8483 11.8655 12.8483 11.4217C12.8483 10.9779 12.4886 10.6182 12.0448 10.6182H6.46386C6.46093 10.6182 6.458 10.6182 6.45508 10.6182V12.2253ZM6.45508 8.88248C6.458 8.88251 6.46093 8.88253 6.46386 8.88253H9.96076C10.4046 8.88253 10.7643 8.52275 10.7643 8.07896C10.7643 7.63516 10.4046 7.27539 9.96076 7.27539H6.46386C6.46093 7.27539 6.458 7.2754 6.45508 7.27543V8.88248Z" fill="#3C757D"/>
<path fill-rule="evenodd" clip-rule="evenodd" d="M18.7453 17.4805C20.1514 17.4805 21.2912 16.3406 21.2912 14.9346C21.2912 13.5285 20.1514 12.3887 18.7453 12.3887C17.3392 12.3887 16.1993 13.5285 16.1993 14.9346C16.1993 16.3406 17.3392 17.4805 18.7453 17.4805ZM14.502 22.5723C14.502 20.2288 16.4017 18.3291 18.7452 18.3291C21.0885 18.3291 22.9883 20.2288 22.9883 22.5723C22.9883 22.8066 22.7984 22.9966 22.564 22.9966H14.9263C14.6919 22.9966 14.502 22.8066 14.502 22.5723Z" fill="#3C757D"/>
</svg>
