<svg width="20" height="20" viewBox="0 0 20 20" fill="none" xmlns="http://www.w3.org/2000/svg">
<path d="M17.7358 17.6472C17.7358 18.2019 17.7399 18.7327 17.7358 19.2596C17.7414 19.3538 17.7302 19.4483 17.7031 19.5374C17.676 19.6264 17.6334 19.7081 17.5781 19.7774C17.5228 19.8467 17.4558 19.9022 17.3812 19.9405C17.3067 19.9787 17.2262 19.999 17.1447 20C17.0632 20.0009 16.9824 19.9826 16.9072 19.9461C16.832 19.9096 16.764 19.8558 16.7075 19.7878C16.6509 19.7198 16.6069 19.6391 16.5782 19.5508C16.5495 19.4624 16.5367 19.3682 16.5406 19.2739C16.5317 18.8215 16.5406 18.369 16.5406 17.9166V17.6599H3.4756V18.0806C3.4756 18.4768 3.48176 18.8793 3.4756 19.2794C3.47831 19.3723 3.46486 19.4648 3.43605 19.5516C3.40724 19.6383 3.36365 19.7174 3.30789 19.7842C3.25213 19.851 3.18533 19.9041 3.11147 19.9404C3.03761 19.9767 2.9582 19.9954 2.87797 19.9954C2.79775 19.9954 2.71834 19.9767 2.64448 19.9404C2.57062 19.9041 2.50382 19.851 2.44806 19.7842C2.39229 19.7174 2.34871 19.6383 2.3199 19.5516C2.29108 19.4648 2.27764 19.3723 2.28035 19.2794C2.27351 18.7454 2.28035 18.2114 2.28035 17.6496H1.40666C1.15283 17.6496 0.899003 17.6496 0.645175 17.6496C0.558456 17.6576 0.471268 17.6436 0.389711 17.6086C0.308154 17.5735 0.234196 17.5182 0.173007 17.4466C0.111819 17.375 0.0648787 17.2888 0.0354676 17.1939C0.00605657 17.0991 -0.00511341 16.998 0.00273669 16.8977C0.00273669 15.3225 -0.00342087 13.7466 0.00273669 12.1706C-0.0014675 11.4258 0.204316 10.6998 0.588837 10.1027C0.973359 9.50571 1.51561 9.0703 2.13325 8.86264C2.17567 8.84758 2.21672 8.82857 2.27009 8.80559V8.53383C2.27009 6.50625 2.27009 4.47867 2.27009 2.4495C2.258 1.90988 2.40446 1.38148 2.68548 0.950814C2.9665 0.520146 3.36544 0.212711 3.817 0.0788381C4.00652 0.0261945 4.20094 0.000910889 4.39581 0.0035655C8.13186 -0.0011885 11.8684 -0.0011885 15.6053 0.0035655C15.8862 -0.00677813 16.166 0.0496826 16.4274 0.169459C16.6888 0.289235 16.9262 0.469787 17.1249 0.699964C17.3237 0.930141 17.4796 1.20506 17.583 1.50774C17.6864 1.81042 17.7352 2.13445 17.7262 2.4598C17.731 4.48025 17.7262 6.50069 17.7262 8.52114V8.80401C17.7823 8.82857 17.835 8.85472 17.8877 8.87373C18.491 9.08315 19.0208 9.51038 19.3996 10.0931C19.7784 10.6758 19.9866 11.3834 19.9936 12.1128C20.0052 13.7109 19.9984 15.3098 19.9936 16.9072C20.0013 17.0076 19.9898 17.1087 19.96 17.2034C19.9303 17.2981 19.8829 17.384 19.8213 17.4552C19.7597 17.5264 19.6854 17.5811 19.6036 17.6153C19.5217 17.6496 19.4344 17.6627 19.3477 17.6536C18.8148 17.6536 18.2832 17.6536 17.7235 17.6536L17.7358 17.6472ZM18.8018 16.2559C18.8072 16.1767 18.8134 16.1275 18.8134 16.076C18.8134 14.794 18.8134 13.5128 18.8134 12.2309C18.8155 12.0424 18.7967 11.8544 18.7573 11.6715C18.6634 11.2071 18.4323 10.7953 18.104 10.5074C17.7756 10.2194 17.3707 10.0735 16.9593 10.0947C12.3238 10.0921 7.68805 10.0947 3.05209 10.1026C2.76011 10.104 2.47177 10.1778 2.20646 10.3189C1.8831 10.4895 1.61277 10.7709 1.43204 11.1252C1.2513 11.4795 1.16889 11.8895 1.19593 12.2998C1.19593 13.5369 1.19593 14.7734 1.19593 16.0095C1.19593 16.0887 1.20278 16.1679 1.20688 16.2583H18.8004L18.8018 16.2559ZM16.5365 8.71923V8.44112C16.5365 6.47376 16.5242 4.5064 16.5433 2.53903C16.5551 2.38159 16.537 2.22306 16.4903 2.07459C16.4435 1.92613 16.3692 1.79133 16.2726 1.6797C16.176 1.56806 16.0595 1.48229 15.9312 1.42844C15.8029 1.37458 15.666 1.35394 15.53 1.36796C11.8465 1.37906 8.16264 1.37906 4.4786 1.36796C4.34261 1.35422 4.20568 1.3752 4.07745 1.4294C3.94923 1.48361 3.83284 1.56974 3.73648 1.68171C3.64012 1.79367 3.56615 1.92876 3.51977 2.07744C3.4734 2.22612 3.45575 2.38477 3.46807 2.5422C3.4886 4.50956 3.47491 6.47613 3.47491 8.44429V8.70417H5.43781C5.43781 8.36585 5.43781 8.03544 5.43781 7.70583C5.42952 7.26344 5.49857 6.82367 5.64081 6.41297C5.78305 6.00227 5.99554 5.62912 6.2655 5.31596C6.53546 5.00281 6.85731 4.75612 7.21171 4.59071C7.56611 4.42531 7.94573 4.34461 8.32775 4.35348C9.44706 4.34635 10.5671 4.35348 11.6864 4.35348C12.1046 4.34206 12.5194 4.44237 12.8987 4.64664C13.4034 4.90299 13.8314 5.32626 14.1292 5.86332C14.4269 6.40037 14.581 7.0273 14.5722 7.66543C14.5811 8.0093 14.5722 8.35317 14.5722 8.70655C14.6475 8.7121 14.6981 8.71923 14.7487 8.71923H16.5351H16.5365ZM13.3742 8.70734C13.3742 8.35792 13.3742 8.03545 13.3742 7.71217C13.3848 7.44929 13.3478 7.18674 13.2655 6.94144C13.1832 6.69614 13.0574 6.47354 12.8962 6.28797C12.7351 6.1024 12.5422 5.95798 12.3299 5.86402C12.1176 5.77006 11.8907 5.72864 11.6638 5.74243C11.2218 5.74243 10.7792 5.74243 10.3372 5.74243C9.60169 5.74243 8.86689 5.72579 8.13345 5.75986C7.86816 5.77267 7.61039 5.86573 7.3858 6.02976C7.16122 6.19379 6.97765 6.42308 6.85336 6.69482C6.63316 7.33355 6.55802 8.02699 6.63511 8.70893H13.3735L13.3742 8.70734Z" fill="#787878"/>
</svg>
