<svg width="20" height="20" viewBox="0 0 20 20" fill="none" xmlns="http://www.w3.org/2000/svg">
<path d="M4.96408 18.6392H15.0412C15.0412 18.8687 15.0412 19.0934 15.0412 19.3172C15.0329 19.4031 15.0418 19.4899 15.0672 19.572C15.0926 19.654 15.134 19.7296 15.1888 19.7939C15.2436 19.8581 15.3105 19.9096 15.3853 19.945C15.46 19.9804 15.541 19.999 15.623 19.9996C15.705 20.0001 15.7862 19.9827 15.8614 19.9483C15.9366 19.9138 16.0041 19.8633 16.0597 19.7998C16.1153 19.7363 16.1576 19.6613 16.184 19.5795C16.2105 19.4978 16.2204 19.4112 16.2132 19.3252C16.2132 19.0304 16.2063 18.7356 16.2184 18.4417C16.2228 18.4017 16.2355 18.3633 16.2557 18.3291C16.2758 18.295 16.3029 18.2659 16.335 18.2441C17.0489 17.8918 17.6521 17.3315 18.0731 16.6295C18.4941 15.9275 18.7154 15.1133 18.7107 14.2831C18.7167 13.1592 18.7167 12.0354 18.7107 10.9116C18.7001 10.8468 18.7123 10.7803 18.745 10.7244C18.7778 10.6684 18.8288 10.6271 18.8885 10.608C19.2765 10.4361 19.5957 10.1276 19.7915 9.7352C19.9874 9.34283 20.0477 8.89101 19.9621 8.45701C19.8678 8.03025 19.6425 7.64814 19.321 7.36988C18.9996 7.09162 18.6 6.93273 18.1841 6.91784C17.9511 6.91147 17.7188 6.91784 17.463 6.91784V6.67884C17.463 5.58262 17.4941 4.48402 17.4547 3.38939C17.4666 2.71845 17.2852 2.05945 16.9345 1.49915C16.5838 0.938853 16.0801 0.503537 15.4898 0.250517C15.0852 0.0703328 14.6481 -0.0144848 14.2091 0.00201953C13.7701 0.0185239 13.3398 0.135945 12.9484 0.346053C12.5571 0.55616 12.2141 0.853872 11.9436 1.2183C11.673 1.58274 11.4814 2.00507 11.3823 2.4557C11.3482 2.61503 11.293 2.66124 11.1553 2.6461C11.0708 2.63786 10.9856 2.63786 10.9011 2.6461C10.7536 2.65788 10.6157 2.72754 10.5147 2.84129C10.4136 2.95505 10.3569 3.1046 10.3556 3.26034C10.3536 3.4167 10.4093 3.56778 10.5108 3.68186C10.6124 3.79594 10.752 3.86416 10.9003 3.87218C11.551 3.88545 12.2017 3.88545 12.8524 3.87218C13.0007 3.86498 13.1407 3.79758 13.243 3.68412C13.3452 3.57066 13.4018 3.41993 13.4009 3.26352C13.4007 3.10423 13.3424 2.95111 13.2381 2.83577C13.1337 2.72043 12.9913 2.65168 12.8402 2.64371C12.7495 2.63813 12.6587 2.64371 12.5452 2.64371C12.622 2.32791 12.7778 2.03957 12.9964 1.80879C13.2151 1.578 13.4885 1.41321 13.7883 1.33159C14.0578 1.25112 14.3407 1.23299 14.6176 1.27845C14.8944 1.32391 15.1587 1.43188 15.3922 1.59496C15.6257 1.75804 15.8229 1.97237 15.9704 2.22325C16.1178 2.47413 16.212 2.75562 16.2464 3.04842C16.2628 3.129 16.2734 3.21075 16.2782 3.29299C16.2782 4.488 16.2782 5.69018 16.2782 6.91784H1.9551C1.59722 6.89827 1.24162 6.98831 0.931316 7.17706C0.62101 7.36581 0.369295 7.64518 0.206606 7.9814C0.0900745 8.21449 0.0211067 8.47065 0.00413513 8.73346C-0.0128365 8.99627 0.0225582 9.25991 0.108049 9.50746C0.193541 9.75501 0.327238 9.98101 0.500565 10.171C0.673891 10.3609 0.883017 10.5106 1.11452 10.6104C1.17421 10.6295 1.22523 10.6708 1.25798 10.7267C1.29073 10.7826 1.30294 10.8492 1.29232 10.9139C1.28778 12.0293 1.27567 13.1446 1.29232 14.2655C1.27362 15.0975 1.48736 15.9169 1.90701 16.622C2.32666 17.3272 2.93375 17.8871 3.6529 18.2322C3.69822 18.2476 3.73689 18.2794 3.76208 18.322C3.78728 18.3646 3.79738 18.4151 3.7906 18.4648C3.78152 18.6241 3.7906 18.7834 3.7906 18.938C3.7906 19.7068 3.9563 20.0039 4.38226 20C4.80822 19.996 4.96332 19.7036 4.96332 18.9476V18.6408L4.96408 18.6392ZM2.46732 10.8016H17.5402C17.5402 11.9966 17.5455 13.1733 17.5402 14.3524C17.536 15.1608 17.2293 15.9349 16.6865 16.5068C16.1437 17.0786 15.4087 17.402 14.6409 17.4068C11.549 17.4158 8.45678 17.4158 5.36432 17.4068C4.72758 17.4037 4.10947 17.1803 3.60525 16.7708C3.10102 16.3614 2.73865 15.7887 2.57399 15.1411C2.51784 14.9513 2.48479 14.7548 2.47564 14.5563C2.46732 13.3095 2.4711 12.0627 2.4711 10.8008L2.46732 10.8016ZM9.99847 9.55243H2.03151C1.95964 9.55243 1.88776 9.55243 1.81664 9.55243C1.65678 9.53848 1.50614 9.46785 1.38932 9.35209C1.27251 9.23633 1.19644 9.08228 1.17354 8.9151C1.16617 8.74932 1.21432 8.58607 1.3096 8.45386C1.40487 8.32165 1.54121 8.22887 1.69483 8.19172C1.78961 8.16915 1.88672 8.15925 1.98385 8.16225C7.32744 8.16225 12.671 8.16225 18.0146 8.16225C18.0729 8.16225 18.1319 8.16225 18.1901 8.16225C18.3469 8.17837 18.494 8.24898 18.6084 8.36294C18.7228 8.4769 18.7979 8.62772 18.8219 8.79161C18.8325 8.95729 18.787 9.12156 18.6935 9.25528C18.6 9.38901 18.4646 9.48356 18.3112 9.52216C18.2101 9.5471 18.1063 9.55808 18.0025 9.55482C15.3337 9.55482 12.665 9.55482 9.9962 9.55482L9.99847 9.55243Z" fill="#787878"/>
</svg>
