<svg width="43" height="43" viewBox="0 0 43 43" fill="none" xmlns="http://www.w3.org/2000/svg">
<path d="M22.5667 7.34597C23.4057 8.58704 23.8951 10.0728 23.8951 11.681C23.8777 15.8761 20.574 19.2847 16.4138 19.4245C16.239 19.4071 16.0292 19.4071 15.8369 19.4245C11.6767 19.2847 8.37305 15.8761 8.37305 11.681C8.37305 7.39841 11.8341 3.91992 16.1341 3.91992" stroke="#8D6E3D" stroke-width="1.5" stroke-linecap="round" stroke-linejoin="round"/>
<path d="M29.0866 7.41602C32.4777 7.41602 35.2046 10.1603 35.2046 13.534C35.2046 16.8376 32.5826 19.5295 29.3139 19.6519C29.174 19.6344 29.0167 19.6344 28.8594 19.6519" stroke="#8D6E3D" stroke-width="1.5" stroke-linecap="round" stroke-linejoin="round"/>
<path d="M7.67454 25.8737C3.44442 28.7054 3.44442 33.3201 7.67454 36.1344C12.4815 39.3507 20.3649 39.3507 25.1719 36.1344C29.402 33.3026 29.402 28.688 25.1719 25.8737C20.3824 22.6749 12.499 22.6749 7.67454 25.8737Z" stroke="#8D6E3D" stroke-width="1.5" stroke-linecap="round" stroke-linejoin="round"/>
<path d="M32.4609 35.3844C33.7195 35.1222 34.9081 34.6153 35.887 33.8636C38.6138 31.8185 38.6138 28.4449 35.887 26.3997C34.9256 25.6656 33.7544 25.1762 32.5134 24.8965" stroke="#8D6E3D" stroke-width="1.5" stroke-linecap="round" stroke-linejoin="round"/>
</svg>
