<svg width="27" height="27" viewBox="0 0 27 27" fill="none" xmlns="http://www.w3.org/2000/svg">
<circle cx="13.5" cy="13.5" r="13.25" stroke="#3C757D" stroke-width="0.5"/>
<path opacity="0.6" d="M11.5825 7C11.5225 7.225 11.5 7.4725 11.5 7.75V10H7.75V8.5C7.75 7.675 8.425 7 9.25 7H11.5825Z" fill="#3C757D"/>
<path d="M11.5 18.25V10H7.75C6.25 10 5.5 10.75 5.5 12.25V18.25C5.5 19.75 6.25 20.5 7.75 20.5H13.75C12.25 20.5 11.5 19.75 11.5 18.25ZM9.0625 16.75C9.0625 17.0575 8.8075 17.3125 8.5 17.3125C8.1925 17.3125 7.9375 17.0575 7.9375 16.75V13.75C7.9375 13.4425 8.1925 13.1875 8.5 13.1875C8.8075 13.1875 9.0625 13.4425 9.0625 13.75V16.75Z" fill="#3C757D"/>
<path opacity="0.4" d="M14.5 20.5H13.75C12.25 20.5 11.5 19.75 11.5 18.25V7.75C11.5 6.25 12.25 5.5 13.75 5.5H18.25C19.75 5.5 20.5 6.25 20.5 7.75V18.25C20.5 19.75 19.75 20.5 18.25 20.5H17.5" fill="#3C757D"/>
<path d="M17.5 17.5V20.5H14.5V17.5C14.5 17.0875 14.8375 16.75 15.25 16.75H16.75C17.1625 16.75 17.5 17.0875 17.5 17.5Z" fill="#3C757D"/>
<path d="M14.5 14.3125C14.1925 14.3125 13.9375 14.0575 13.9375 13.75V10C13.9375 9.6925 14.1925 9.4375 14.5 9.4375C14.8075 9.4375 15.0625 9.6925 15.0625 10V13.75C15.0625 14.0575 14.8075 14.3125 14.5 14.3125Z" fill="#3C757D"/>
<path d="M17.5 14.3125C17.1925 14.3125 16.9375 14.0575 16.9375 13.75V10C16.9375 9.6925 17.1925 9.4375 17.5 9.4375C17.8075 9.4375 18.0625 9.6925 18.0625 10V13.75C18.0625 14.0575 17.8075 14.3125 17.5 14.3125Z" fill="#3C757D"/>
</svg>
