<svg width="22" height="22" viewBox="0 0 22 22" fill="none" xmlns="http://www.w3.org/2000/svg">
<path d="M16.9676 1.65039C16.5092 1.65039 16.1426 2.01706 16.1426 2.47539V6.73789C16.1426 7.19622 16.5092 7.56289 16.9676 7.56289C17.4259 7.56289 17.7926 7.19622 17.7926 6.73789V2.47539C17.7926 2.01706 17.4259 1.65039 16.9676 1.65039Z" fill="white"/>
<path d="M11.0008 14.4375C10.5424 14.4375 10.1758 14.8042 10.1758 15.2625V19.525C10.1758 19.9833 10.5424 20.35 11.0008 20.35C11.4591 20.35 11.8258 19.9833 11.8258 19.525V15.2625C11.8258 14.8133 11.4591 14.4375 11.0008 14.4375Z" fill="#3C757D"/>
<path d="M5.03203 1.65039C4.5737 1.65039 4.20703 2.01706 4.20703 2.47539V6.73789C4.20703 7.19622 4.5737 7.56289 5.03203 7.56289C5.49036 7.56289 5.85703 7.19622 5.85703 6.73789V2.47539C5.85703 2.01706 5.4812 1.65039 5.03203 1.65039Z" fill="white"/>
<path d="M6.73891 9.32422H3.32891C2.87057 9.32422 2.50391 9.69089 2.50391 10.1492C2.50391 10.6076 2.87057 10.9742 3.32891 10.9742H4.20891V19.5267C4.20891 19.9851 4.57557 20.3517 5.03391 20.3517C5.49224 20.3517 5.85891 19.9851 5.85891 19.5267V10.9742H6.73891C7.19724 10.9742 7.56391 10.6076 7.56391 10.1492C7.56391 9.69089 7.18807 9.32422 6.73891 9.32422Z" fill="white"/>
<path d="M18.6725 9.32422H15.2625C14.8042 9.32422 14.4375 9.69089 14.4375 10.1492C14.4375 10.6076 14.8042 10.9742 15.2625 10.9742H16.1425V19.5267C16.1425 19.9851 16.5092 20.3517 16.9675 20.3517C17.4258 20.3517 17.7925 19.9851 17.7925 19.5267V10.9742H18.6725C19.1308 10.9742 19.4975 10.6076 19.4975 10.1492C19.4975 9.69089 19.1308 9.32422 18.6725 9.32422Z" fill="white"/>
<path d="M12.7038 11.0279H11.8238V2.47539C11.8238 2.01706 11.4571 1.65039 10.9988 1.65039C10.5404 1.65039 10.1738 2.01706 10.1738 2.47539V11.0279H9.29375C8.83542 11.0279 8.46875 11.3946 8.46875 11.8529C8.46875 12.3112 8.83542 12.6779 9.29375 12.6779H12.7038C13.1621 12.6779 13.5288 12.3112 13.5288 11.8529C13.5288 11.3946 13.1621 11.0279 12.7038 11.0279Z" fill="#3C757D"/>
</svg>
