<svg width="33" height="33" viewBox="0 0 33 33" fill="none" xmlns="http://www.w3.org/2000/svg">
<circle cx="16.5" cy="16.5" r="16" stroke="white"/>
<path d="M11.9998 24.3337V9.33366C11.9998 8.89163 12.1754 8.46771 12.488 8.15515C12.8006 7.84259 13.2245 7.66699 13.6665 7.66699H20.3332C20.7752 7.66699 21.1991 7.84259 21.5117 8.15515C21.8242 8.46771 21.9998 8.89163 21.9998 9.33366V24.3337M11.9998 24.3337H21.9998M11.9998 24.3337H10.3332C9.89114 24.3337 9.46722 24.1581 9.15466 23.8455C8.8421 23.5329 8.6665 23.109 8.6665 22.667V17.667C8.6665 17.225 8.8421 16.801 9.15466 16.4885C9.46722 16.1759 9.89114 16.0003 10.3332 16.0003H11.9998M21.9998 24.3337H23.6665C24.1085 24.3337 24.5325 24.1581 24.845 23.8455C25.1576 23.5329 25.3332 23.109 25.3332 22.667V15.167C25.3332 14.725 25.1576 14.301 24.845 13.9885C24.5325 13.6759 24.1085 13.5003 23.6665 13.5003H21.9998M15.3332 11.0003H18.6665M15.3332 14.3337H18.6665M15.3332 17.667H18.6665M15.3332 21.0003H18.6665" stroke="#8D6E3D" stroke-linecap="round" stroke-linejoin="round"/>
</svg>
