<svg width="17" height="17" viewBox="0 0 17 17" fill="none" xmlns="http://www.w3.org/2000/svg">
<path d="M7.88244 3.42705C8.18179 2.50574 9.4852 2.50574 9.78455 3.42705L10.4051 5.33688C10.539 5.7489 10.9229 6.02786 11.3562 6.02786H13.3643C14.333 6.02786 14.7358 7.26748 13.9521 7.83688L12.3275 9.01722C11.977 9.27187 11.8303 9.72323 11.9642 10.1353L12.5847 12.0451C12.8841 12.9664 11.8296 13.7325 11.0459 13.1631L9.42128 11.9828C9.07079 11.7281 8.5962 11.7281 8.24571 11.9828L6.62111 13.1631C5.8374 13.7325 4.78292 12.9664 5.08227 12.0451L5.70281 10.1353C5.83669 9.72323 5.69003 9.27186 5.33954 9.01722L3.71494 7.83688C2.93123 7.26748 3.334 6.02786 4.30273 6.02786H6.31084C6.74407 6.02786 7.12802 5.7489 7.2619 5.33688L7.88244 3.42705Z" fill="#FFBD00"/>
</svg>
