<svg width="28" height="28" viewBox="0 0 28 28" fill="none" xmlns="http://www.w3.org/2000/svg">
<path fill-rule="evenodd" clip-rule="evenodd" d="M14 5C18.9706 5 23 9.02944 23 14C23 18.9706 18.9706 23 14 23C9.02944 23 5 18.9706 5 14C5 9.02944 9.02944 5 14 5Z" fill="white"/>
<path fill-rule="evenodd" clip-rule="evenodd" d="M16.2476 22.7147C15.5282 22.8999 14.7739 22.9984 13.9966 22.9984C10.7662 22.9984 7.93333 21.2965 6.3457 18.7404C7.42839 17.2276 8.93905 16.1681 10.8734 16.1681C14.1992 16.1681 15.9517 18.9088 16.2029 21.9171C16.2245 22.1751 16.2418 22.4463 16.2476 22.7147ZM21.8063 18.4746C20.8397 20.1575 19.3447 21.4983 17.5478 22.2707C17.5852 22.1103 17.5984 21.9423 17.5841 21.7717C17.4461 20.1184 16.8899 18.4361 15.8031 17.1332C15.7448 17.0633 15.6852 16.9948 15.6242 16.9276C16.2969 16.5872 17.0412 16.4091 17.7971 16.4091C18.6227 16.4091 19.4344 16.6215 20.1543 17.0259C20.4657 17.2008 20.7552 17.409 21.0184 17.6461L21.8063 18.4746ZM13.9636 12.0546C13.9636 10.4604 12.6712 9.16797 11.0769 9.16797C9.48265 9.16797 8.19025 10.4604 8.19025 12.0546C8.19025 13.6489 9.48265 14.9413 11.0769 14.9413C12.6712 14.9413 13.9636 13.6489 13.9636 12.0546ZM17.774 10.5011C19.0948 10.5011 20.1655 11.5718 20.1655 12.8926C20.1655 14.2134 19.0948 15.2841 17.774 15.2841C16.4532 15.2841 15.3825 14.2134 15.3825 12.8926C15.3825 11.5718 16.4532 10.5011 17.774 10.5011Z" fill="#3C757D"/>
</svg>
