<svg width="27" height="27" viewBox="0 0 27 27" fill="none" xmlns="http://www.w3.org/2000/svg">
<circle cx="13.5" cy="13.5" r="13.25" stroke="#3C757D" stroke-width="0.5"/>
<path opacity="0.4" d="M19.9375 10.8623C18.205 8.13977 15.67 6.57227 13 6.57227C11.665 6.57227 10.3675 6.96227 9.1825 7.68977C7.9975 8.42477 6.9325 9.49727 6.0625 10.8623C5.3125 12.0398 5.3125 13.9523 6.0625 15.1298C7.795 17.8598 10.33 19.4198 13 19.4198C14.335 19.4198 15.6325 19.0298 16.8175 18.3023C18.0025 17.5673 19.0675 16.4948 19.9375 15.1298C20.6875 13.9598 20.6875 12.0398 19.9375 10.8623ZM13 16.0298C11.32 16.0298 9.97 14.6723 9.97 12.9998C9.97 11.3273 11.32 9.96977 13 9.96977C14.68 9.96977 16.03 11.3273 16.03 12.9998C16.03 14.6723 14.68 16.0298 13 16.0298Z" fill="#3C757D"/>
<path d="M12.9998 10.8555C11.8223 10.8555 10.8623 11.8155 10.8623 13.0005C10.8623 14.178 11.8223 15.138 12.9998 15.138C14.1773 15.138 15.1448 14.178 15.1448 13.0005C15.1448 11.823 14.1773 10.8555 12.9998 10.8555Z" fill="#3C757D"/>
</svg>
