<svg width="25" height="24" viewBox="0 0 25 24" fill="none" xmlns="http://www.w3.org/2000/svg">
<path d="M5.42578 10H7.42578C9.42578 10 10.4258 9 10.4258 7V5C10.4258 3 9.42578 2 7.42578 2H5.42578C3.42578 2 2.42578 3 2.42578 5V7C2.42578 9 3.42578 10 5.42578 10Z" stroke="#3C757D" stroke-width="1.5" stroke-miterlimit="10" stroke-linecap="round" stroke-linejoin="round"/>
<path d="M17.4258 10H19.4258C21.4258 10 22.4258 9 22.4258 7V5C22.4258 3 21.4258 2 19.4258 2H17.4258C15.4258 2 14.4258 3 14.4258 5V7C14.4258 9 15.4258 10 17.4258 10Z" stroke="#3C757D" stroke-width="1.5" stroke-miterlimit="10" stroke-linecap="round" stroke-linejoin="round"/>
<path d="M17.4258 22H19.4258C21.4258 22 22.4258 21 22.4258 19V17C22.4258 15 21.4258 14 19.4258 14H17.4258C15.4258 14 14.4258 15 14.4258 17V19C14.4258 21 15.4258 22 17.4258 22Z" stroke="#3C757D" stroke-width="1.5" stroke-miterlimit="10" stroke-linecap="round" stroke-linejoin="round"/>
<path d="M5.42578 22H7.42578C9.42578 22 10.4258 21 10.4258 19V17C10.4258 15 9.42578 14 7.42578 14H5.42578C3.42578 14 2.42578 15 2.42578 17V19C2.42578 21 3.42578 22 5.42578 22Z" stroke="#3C757D" stroke-width="1.5" stroke-miterlimit="10" stroke-linecap="round" stroke-linejoin="round"/>
</svg>
